<?xml version="1.0" encoding="utf-8"?>
<!DOCTYPE svg PUBLIC "-//W3C//DTD SVG 1.1//EN" "http://www.w3.org/Graphics/SVG/1.1/DTD/svg11.dtd">
<svg xmlns="http://www.w3.org/2000/svg" xmlns:xlink="http://www.w3.org/1999/xlink" viewBox="0 -5 48 53" version="1.1">
  <g id="surface1">
    <path style="fill:#FAFAFA;" d="M 2 24.078125 C 2 24.078125 10.097656 14 24 14 C 37.902344 14 46 24.078125 46 24.078125 C 46 24.078125 35.441406 38 24 38 C 12.558594 38 2 24.078125 2 24.078125 Z "></path>
    <path style="fill:#009688;" d="M 35 24 C 35 30.074219 30.074219 35 24 35 C 17.925781 35 13 30.074219 13 24 C 13 17.925781 17.925781 13 24 13 C 30.074219 13 35 17.925781 35 24 Z "></path>
    <path style="fill:#FFA726;" d="M 2 24.078125 C 2 24.078125 10.097656 41 24 41 C 37.902344 41 46 24.078125 46 24.078125 C 46 24.078125 35.441406 36.039063 24 36.039063 C 12.558594 36.039063 2 24.078125 2 24.078125 Z "></path>
    <path style="fill:#FFA726;" d="M 2 24.078125 C 2 24.078125 10.097656 16 24 16 C 37.902344 16 46 24.078125 46 24.078125 C 46 24.078125 39.3125 9 24 9 C 8.6875 9 2 24.078125 2 24.078125 Z "></path>
    <path style="fill:#263238;" d="M 29 24 C 29 26.761719 26.761719 29 24 29 C 21.238281 29 19 26.761719 19 24 C 19 21.238281 21.238281 19 24 19 C 26.761719 19 29 21.238281 29 24 Z "></path>
    <path style="fill:#FFFFFF;" d="M 30 20 C 30 21.105469 29.105469 22 28 22 C 26.894531 22 26 21.105469 26 20 C 26 18.894531 26.894531 18 28 18 C 29.105469 18 30 18.894531 30 20 Z "></path>
    <path style="fill:#37474F;" d="M 2.929688 5.757813 L 5.757813 2.929688 L 45.023438 42.195313 L 42.195313 45.023438 Z "></path>
  </g>
</svg>