<?xml version="1.0" encoding="utf-8"?>
<!DOCTYPE svg PUBLIC "-//W3C//DTD SVG 1.1//EN" "http://www.w3.org/Graphics/SVG/1.1/DTD/svg11.dtd">
<svg xmlns="http://www.w3.org/2000/svg" viewBox="0 0 26 26">
  <path style="fill:#343434" d="M 5.4257812 0.00390625 C 5.1966562 0.03028125 4.9851563 0.20589062 4.8476562 0.52539062 L 1.0917969 9.2636719 C 0.81779688 9.9026719 1.1699531 10.348859 1.8769531 10.255859 L 11.449219 8.9316406 C 12.155219 8.8366406 12.117266 8.3783594 11.697266 7.8183594 L 9.9746094 5.5253906 C 10.919072 5.1881234 11.934495 5 13 5 C 17.988343 5 22 9.011657 22 14 C 22 18.988343 17.988343 23 13 23 C 8.9079149 23 5.4782018 20.284936 4.3730469 16.572266 A 1.50015 1.50015 0 1 0 1.4980469 17.427734 C 2.9748919 22.389064 7.5780851 26 13 26 C 19.609657 26 25 20.609657 25 14 C 25 7.390343 19.609657 2 13 2 C 11.263622 2 9.6102597 2.3792984 8.1152344 3.046875 L 6.1113281 0.38085938 C 5.9013281 0.10085938 5.6549063 -0.02246875 5.4257812 0.00390625 z"></path>
</svg>