<?xml version="1.0" encoding="utf-8"?>
<!DOCTYPE svg PUBLIC "-//W3C//DTD SVG 1.1//EN" "http://www.w3.org/Graphics/SVG/1.1/DTD/svg11.dtd">
<svg xmlns="http://www.w3.org/2000/svg" xmlns:xlink="http://www.w3.org/1999/xlink" viewBox="0 -7 48 53" version="1.1">
  <g id="surface1">
    <path style="fill:#FFCC80;" d="M 20.960938 30 L 36 30 L 36 6 L 20.960938 6 C 17.710938 6 15.082031 8.6875 15.082031 11.996094 L 15.082031 24 C 15.082031 27.316406 17.710938 30 20.960938 30 Z "></path>
    <path style="fill:#FFCC80;" d="M 32 27 C 32 25.34375 33.34375 24 35 24 L 38 24 C 39.65625 24 41 25.34375 41 27 C 41 28.65625 39.65625 30 38 30 L 35 30 C 33.34375 30 32 28.65625 32 27 Z "></path>
    <path style="fill:#FFCC80;" d="M 29 21 C 29 19.34375 30.34375 18 32 18 L 38 18 C 39.65625 18 41 19.34375 41 21 C 41 22.65625 39.65625 24 38 24 L 32 24 C 30.34375 24 29 22.65625 29 21 Z "></path>
    <path style="fill:#FFCC80;" d="M 28 15 C 28 13.34375 29.34375 12 31 12 L 37 12 C 38.65625 12 40 13.34375 40 15 C 40 16.65625 38.65625 18 37 18 L 31 18 C 29.34375 18 28 16.65625 28 15 Z "></path>
    <path style="fill:#FFCC80;" d="M 27 9 C 27 7.34375 28.34375 6 30 6 L 36 6 C 37.65625 6 39 7.34375 39 9 C 39 10.65625 37.65625 12 36 12 L 30 12 C 28.34375 12 27 10.65625 27 9 Z "></path>
    <path style="fill:#FFCC80;" d="M 17.40625 28.746094 L 25.601563 24.480469 L 28.226563 29.242188 C 29.585938 31.703125 30.039063 34.484375 30.039063 37.3125 L 30.039063 38.707031 C 30.039063 40 28.855469 42 27.070313 42 L 26.398438 42 C 25.816406 42 25.304688 41.597656 25.164063 41.019531 L 24.441406 38.066406 C 24.109375 36.710938 23.453125 35.464844 22.527344 34.433594 Z "></path>
    <path style="fill:#F2A25A;" d="M 39 24 L 35 24 C 34.449219 24 34 23.554688 34 23 C 34 22.445313 34.449219 22 35 22 Z "></path>
    <path style="fill:#F2A25A;" d="M 38 18 L 34 18 C 33.449219 18 33 17.554688 33 17 C 33 16.445313 33.449219 16 34 16 Z "></path>
    <path style="fill:#F2A25A;" d="M 37 12 L 33 12 C 32.449219 12 32 11.554688 32 11 C 32 10.445313 32.449219 10 33 10 Z "></path>
    <path style="fill:#009688;" d="M 6.039063 7 L 16.039063 7 L 16.039063 29 L 6.039063 29 Z "></path>
    <path style="fill:#B2DFDB;" d="M 13.039063 12 C 13.039063 13.105469 12.144531 14 11.039063 14 C 9.933594 14 9.039063 13.105469 9.039063 12 C 9.039063 10.894531 9.933594 10 11.039063 10 C 12.144531 10 13.039063 10.894531 13.039063 12 Z "></path>
  </g>
</svg>