<?xml version="1.0" standalone="no"?>
<!DOCTYPE svg PUBLIC "-//W3C//DTD SVG 20010904//EN"
 "http://www.w3.org/TR/2001/REC-SVG-20010904/DTD/svg10.dtd">
<svg version="1.0" xmlns="http://www.w3.org/2000/svg"
 width="1024.000000pt" height="1024.000000pt" viewBox="0 0 1024.000000 1024.000000"
 preserveAspectRatio="xMidYMid meet">
<metadata>
Created by potrace 1.11, written by Peter Selinger 2001-2013
</metadata>
<g transform="translate(0.000000,1024.000000) scale(0.100000,-0.100000)"
fill="#000000" stroke="none">
<path d="M3750 8513 c-14 -2 -52 -13 -86 -24 -55 -18 -108 -60 -600 -475 -296
-250 -551 -471 -566 -491 -63 -83 -63 -78 -63 -738 0 -561 1 -604 19 -654 21
-62 73 -124 125 -150 75 -38 126 -41 732 -41 l590 0 -343 -286 c-402 -336
-431 -363 -465 -429 -46 -90 -44 -120 61 -777 60 -371 104 -618 117 -655 15
-41 37 -73 74 -110 l53 -52 -143 -125 c-131 -114 -146 -130 -162 -178 -16 -48
-18 -112 -21 -673 -3 -657 -1 -698 43 -785 41 -80 108 -123 222 -140 45 -7
341 -10 868 -8 l800 3 55 22 c42 17 176 123 580 459 289 239 542 452 563 472
51 48 84 115 97 193 6 39 10 283 10 610 l0 547 68 27 c76 30 150 70 234 127
70 47 1088 896 1177 982 127 122 228 283 285 456 68 206 86 411 86 995 -1 571
-18 752 -92 970 -184 541 -685 866 -1422 925 -123 10 -2839 13 -2896 3z m2992
-98 c411 -48 717 -179 955 -408 209 -202 330 -463 363 -787 8 -80 10 -293 7
-700 -4 -539 -6 -594 -25 -695 -22 -115 -67 -255 -109 -340 -139 -277 -471
-491 -913 -588 -63 -14 -635 -96 -1270 -183 -1101 -149 -1158 -156 -1215 -144
-77 16 -133 69 -158 151 -19 62 -197 1170 -197 1226 0 93 51 172 135 213 34
16 222 46 892 140 466 66 871 125 898 131 71 17 128 75 144 147 15 71 14 119
-4 179 -14 47 -22 57 -98 125 -1 1 -544 5 -1207 8 l-1205 5 -60 30 c-65 32
-98 72 -115 136 -7 25 -10 244 -8 621 l3 583 23 47 c25 51 63 83 121 104 57
21 2867 20 3043 -1z m-672 -4134 c55 -22 98 -58 123 -104 l22 -42 0 -645 c0
-611 -1 -647 -19 -680 -26 -49 -55 -79 -101 -103 l-40 -22 -850 0 -850 0 -42
22 c-59 32 -91 70 -109 129 -12 43 -14 144 -12 675 l3 624 22 42 c34 63 93
100 183 116 14 3 387 4 830 3 659 -1 811 -4 840 -15z"/>
<path d="M4260 7661 l0 -40 1148 -3 1147 -3 80 -23 c114 -31 254 -103 309
-158 54 -54 101 -147 124 -247 14 -63 17 -145 17 -637 0 -617 -1 -626 -57
-694 -17 -20 -52 -48 -79 -61 -107 -55 -208 -72 -1099 -191 -481 -64 -877
-118 -878 -120 -2 -1 -1 -21 3 -43 6 -34 11 -41 30 -41 13 0 414 54 892 120
904 125 992 141 1105 202 72 38 109 79 139 155 l24 58 0 610 c0 601 -1 611
-23 690 -63 228 -191 346 -467 432 l-90 28 -1162 3 -1163 3 0 -40z"/>
<path d="M5170 3485 l0 -175 40 0 40 0 0 175 0 175 -40 0 -40 0 0 -175z"/>
</g>
</svg>
