<?xml version="1.0" encoding="utf-8"?>
<!DOCTYPE svg PUBLIC "-//W3C//DTD SVG 1.1//EN" "http://www.w3.org/Graphics/SVG/1.1/DTD/svg11.dtd">
<svg xmlns="http://www.w3.org/2000/svg" xmlns:xlink="http://www.w3.org/1999/xlink" viewBox="0 0 50 50" version="1.1">
  <path style="fill:#111315" d="M 21 3 C 19.445313 3 18.382813 3.914063 17.5625 4.96875 C 15.988281 3.792969 13.800781 2.953125 11.46875 4 C 10.089844 4.621094 9.15625 5.621094 8.6875 6.71875 C 8.417969 7.351563 8.308594 7.992188 8.28125 8.625 C 6.679688 8.515625 4.976563 8.710938 3.6875 10 C 1.53125 12.152344 1.761719 15.039063 2.65625 16.9375 C 2.667969 16.960938 2.675781 16.976563 2.6875 17 C 1.316406 17.929688 0 19.351563 0 21.375 C 0 22.933594 0.773438 24.085938 1.6875 25.03125 C 0.769531 25.867188 0 26.945313 0 28.5 C 0 30.953125 2.019531 33 4.53125 33 L 6 33 L 6 31 L 4.53125 31 C 3.09375 31 2 29.867188 2 28.5 C 2 27.476563 2.523438 26.8125 3.15625 26.3125 C 3.859375 26.699219 4.582031 26.992188 5.34375 26.90625 C 5.75 26.859375 6.199219 26.667969 6.53125 26.3125 C 6.863281 25.957031 7 25.464844 7 25 C 7 24.519531 6.699219 24.015625 6.34375 23.78125 C 5.988281 23.546875 5.632813 23.488281 5.28125 23.46875 C 4.652344 23.433594 3.984375 23.597656 3.3125 23.875 C 2.613281 23.226563 2 22.40625 2 21.375 C 2 20.21875 2.949219 19.148438 3.9375 18.5 C 4.121094 18.667969 4.226563 18.96875 4.4375 19.09375 C 4.816406 19.316406 5.316406 19.484375 5.875 19.3125 C 6.433594 19.140625 6.820313 18.644531 6.96875 18.15625 C 7.105469 17.707031 7.144531 17.164063 6.875 16.6875 C 6.605469 16.210938 6.074219 15.964844 5.65625 15.90625 C 5.261719 15.851563 4.902344 16.09375 4.53125 16.1875 C 4.507813 16.140625 4.492188 16.140625 4.46875 16.09375 C 3.832031 14.738281 3.613281 12.886719 5.09375 11.40625 C 5.917969 10.582031 7.359375 10.4375 8.625 10.59375 C 8.832031 11.300781 9.039063 12.023438 9.5 12.5 C 9.808594 12.816406 10.21875 13.09375 10.75 13.15625 C 11.28125 13.21875 11.863281 12.972656 12.21875 12.59375 C 12.5625 12.226563 12.785156 11.671875 12.75 11.15625 C 12.714844 10.640625 12.453125 10.222656 12.15625 9.90625 C 11.710938 9.433594 11.03125 9.234375 10.375 9 C 10.363281 8.492188 10.328125 7.972656 10.53125 7.5 C 10.816406 6.828125 11.324219 6.242188 12.28125 5.8125 C 13.894531 5.085938 15.445313 5.746094 16.5625 6.65625 C 16.339844 7.269531 16.132813 7.871094 16.25 8.5 C 16.324219 8.894531 16.515625 9.351563 16.90625 9.65625 C 17.296875 9.960938 17.820313 10.027344 18.28125 9.96875 C 18.796875 9.902344 19.339844 9.636719 19.625 9.15625 C 19.910156 8.675781 19.886719 8.15625 19.78125 7.71875 C 19.667969 7.238281 19.246094 6.832031 18.9375 6.40625 C 19.46875 5.65625 20.171875 5 21 5 C 22.769531 5 24 6.109375 24 8.125 L 24 11.9375 L 26 11.9375 L 26 8.125 C 26 5.171875 23.734375 3 21 3 Z M 17.8125 13 C 17.335938 13.089844 16.992188 13.511719 17 14 L 17 17 L 15.6875 17 L 15.59375 17.28125 C 15.582031 17.320313 14.804688 20.058594 14.34375 25 L 17 25 L 17 27 L 14.1875 27 C 14.082031 28.59375 14.03125 30.371094 14.03125 32.3125 C 14.03125 34.113281 14.066406 35.652344 14.15625 37 L 42.84375 37 C 42.9375 35.652344 43 34.109375 43 32.3125 C 43 30.371094 42.917969 28.59375 42.8125 27 L 40 27 L 40 25 L 42.65625 25 C 42.195313 20.058594 41.417969 17.320313 41.40625 17.28125 L 41.34375 17 L 40 17 L 40 14 C 40 13.449219 39.550781 13 39 13 L 18 13 C 17.96875 13 17.9375 13 17.90625 13 C 17.875 13 17.84375 13 17.8125 13 Z M 19 15 L 38 15 L 38 29 L 19 29 Z M 9.96875 17 C 8.492188 17 7.96875 19.066406 7.96875 21 C 7.96875 22.933594 8.492188 25 9.96875 25 L 12.34375 25 C 12.738281 20.597656 13.371094 17.847656 13.59375 17 Z M 43.40625 17 C 43.628906 17.847656 44.292969 20.597656 44.6875 25 L 47 25 C 48.855469 25 49 21.9375 49 21 C 49 20.0625 48.855469 17 47 17 Z M 22 18 C 20.90625 18 20 18.90625 20 20 L 20 24 C 20 25.09375 20.90625 26 22 26 L 23 26 C 23.359375 26 23.707031 25.890625 24 25.71875 C 24.292969 25.890625 24.640625 26 25 26 L 26 26 C 27.09375 26 28 25.09375 28 24 L 28 20 C 28 18.90625 27.09375 18 26 18 L 25 18 C 24.640625 18 24.292969 18.109375 24 18.28125 C 23.707031 18.109375 23.359375 18 23 18 Z M 31 18 C 29.90625 18 29 18.90625 29 20 L 29 24 C 29 25.09375 29.90625 26 31 26 L 32 26 C 32.359375 26 32.707031 25.890625 33 25.71875 C 33.292969 25.890625 33.640625 26 34 26 L 35 26 C 36.09375 26 37 25.09375 37 24 L 37 20 C 37 18.90625 36.09375 18 35 18 L 34 18 C 33.640625 18 33.292969 18.109375 33 18.28125 C 32.707031 18.109375 32.359375 18 32 18 Z M 22 20 L 23 20 L 23 24 L 22 24 Z M 25 20 L 26 20 L 26 24 L 25 24 Z M 31 20 L 32 20 L 32 24 L 31 24 Z M 34 20 L 35 20 L 35 24 L 34 24 Z M 10 27 C 8.960938 27 7 28.046875 7 32 C 7 35.953125 8.960938 37 10 37 L 12.15625 37 C 12.066406 35.632813 12.03125 34.09375 12.03125 32.3125 C 12.03125 30.375 12.085938 28.597656 12.1875 27 Z M 44.84375 27 C 44.945313 28.597656 45 30.375 45 32.3125 C 45 34.09375 44.933594 35.636719 44.84375 37 L 47 37 C 48.246094 37 50 35.449219 50 32 C 50 28.550781 48.246094 27 47 27 Z M 10 39 C 8.839844 39 8 40.261719 8 42 C 8 43.738281 8.839844 45 10 45 L 13.5625 45 C 13.257813 44.21875 12.695313 42.390625 12.34375 39 Z M 14.34375 39 C 14.78125 43.035156 15.523438 44.519531 15.53125 44.53125 L 15.78125 45 L 41.25 45 L 41.5 44.53125 C 41.507813 44.519531 42.25 43.039063 42.6875 39 Z M 44.6875 39 C 44.335938 42.390625 43.773438 44.21875 43.46875 45 L 47 45 C 48.160156 45 49 43.738281 49 42 C 49 40.261719 48.160156 39 47 39 Z "></path>
</svg>