<?xml version="1.0" encoding="utf-8"?>
<!DOCTYPE svg PUBLIC "-//W3C//DTD SVG 1.1//EN" "http://www.w3.org/Graphics/SVG/1.1/DTD/svg11.dtd">
<svg xmlns="http://www.w3.org/2000/svg" xmlns:xlink="http://www.w3.org/1999/xlink" viewBox="0 0 50 50" version="1.1">
  <g id="surface1">
    <path style=" " d="M 17.375 1 C 13.007813 1 4 4.664063 4 15.9375 C 4 18.566406 5.613281 23.945313 5.96875 25.09375 C 4.109375 40.75 17.488281 46.226563 17.625 46.28125 C 17.925781 46.398438 18.289063 46.367188 18.5625 46.1875 C 18.722656 46.082031 18.828125 45.953125 18.90625 45.78125 C 21.550781 48.722656 24.773438 48.988281 24.9375 49 C 24.960938 49.003906 24.976563 49 25 49 C 25.023438 49 25.039063 49.003906 25.0625 49 C 25.226563 48.988281 28.449219 48.722656 31.09375 45.78125 C 31.167969 45.953125 31.277344 46.082031 31.4375 46.1875 C 31.710938 46.367188 32.070313 46.402344 32.375 46.28125 C 32.511719 46.226563 45.890625 40.75 44.03125 25.09375 C 44.386719 23.945313 46 18.566406 46 15.9375 C 46 4.664063 36.992188 1 32.625 1 C 29.164063 1 26.148438 2.308594 25 2.875 C 23.851563 2.308594 20.835938 1 17.375 1 Z M 13 13 C 13.476563 13 13.949219 13.421875 14.8125 13.71875 C 13.699219 15.101563 13 16.988281 13 19.0625 C 13 19.207031 12.996094 19.328125 13 19.46875 C 12.179688 18.789063 11 17.539063 11 16 C 11 14.183594 11.898438 13 13 13 Z M 37 13 C 38.101563 13 39 14.183594 39 16 C 39 17.539063 37.820313 18.789063 37 19.46875 C 37.003906 19.328125 37 19.207031 37 19.0625 C 37 17.011719 36.285156 15.113281 35.15625 13.71875 C 36.039063 13.421875 36.515625 13 37 13 Z M 19.375 13.375 C 22.238281 13.375 25 15 25 15 C 25 15 27.761719 13.375 30.625 13.375 C 30.777344 13.375 30.941406 13.390625 31.09375 13.40625 C 33.21875 13.734375 35 16.238281 35 19.0625 C 35 21.105469 34.449219 22.214844 33.6875 23.75 C 33.257813 24.617188 32.777344 25.574219 32.34375 26.8125 C 32.125 26.492188 31.914063 26.15625 31.6875 25.84375 C 30.65625 24.410156 29.628906 23.011719 29.125 21.96875 C 29.230469 21.976563 29.320313 22 29.4375 22 C 32.03125 22 32.1875 19.269531 32.1875 18.5625 C 29.289063 19.253906 27.726563 20.8125 27.40625 21.15625 C 27.015625 21.429688 26.871094 21.9375 27.0625 22.375 C 27.679688 23.972656 28.964844 25.472656 30.0625 27 C 31.023438 28.335938 31.792969 29.671875 31.96875 30.625 C 31.972656 30.699219 32 30.773438 32 30.84375 C 32.003906 30.894531 32 30.949219 32 31 C 31.996094 31.144531 31.992188 31.285156 31.96875 31.4375 C 31.941406 31.628906 31.90625 31.804688 31.84375 32 C 31.828125 32.054688 31.796875 32.101563 31.78125 32.15625 C 31.671875 32.453125 31.515625 32.75 31.3125 33 C 30.839844 33.582031 30.167969 34 29 34 C 28.054688 34 26.664063 33.554688 25.96875 33.3125 C 25.746094 33.027344 25.386719 32.882813 25.03125 32.9375 C 24.652344 32.859375 24.265625 33.003906 24.03125 33.3125 C 23.335938 33.554688 21.945313 34 21 34 C 19.851563 34 19.199219 33.5625 18.71875 32.9375 C 18.359375 32.46875 18.121094 31.871094 18.03125 31.34375 C 18 31.167969 18 30.996094 18 30.84375 C 18 30.714844 18.003906 30.582031 18.03125 30.4375 C 18.210938 29.496094 18.957031 28.226563 19.90625 26.9375 C 21.003906 25.453125 22.316406 23.980469 22.9375 22.375 C 23.078125 22.007813 22.992188 21.59375 22.71875 21.3125 C 22.71875 21.3125 22.71875 21.28125 22.71875 21.28125 C 22.699219 21.257813 22.679688 21.238281 22.65625 21.21875 C 22.652344 21.214844 22.628906 21.222656 22.625 21.21875 C 22.605469 21.195313 22.585938 21.175781 22.5625 21.15625 C 22.214844 20.785156 20.671875 19.242188 17.8125 18.5625 C 17.8125 19.269531 17.96875 22 20.5625 22 C 20.679688 22 20.769531 21.976563 20.875 21.96875 C 20.371094 23 19.34375 24.351563 18.3125 25.75 C 18.078125 26.066406 17.851563 26.394531 17.625 26.71875 C 17.199219 25.523438 16.730469 24.597656 16.3125 23.75 C 15.550781 22.214844 15 21.109375 15 19.0625 C 15 16.503906 16.523438 13.765625 18.84375 13.40625 C 19.015625 13.386719 19.203125 13.375 19.375 13.375 Z M 25 29 C 23.5 28.988281 22 29.246094 22 29.8125 L 22 30.59375 C 22 30.59375 22.402344 30.910156 22.90625 31.28125 C 22.914063 31.273438 22.898438 31.257813 22.90625 31.25 C 23.167969 30.988281 23.574219 30.949219 23.78125 31.15625 C 23.960938 31.335938 23.925781 31.625 23.75 31.875 C 24.3125 32.261719 25.160156 32.59375 25 32.59375 C 24.839844 32.59375 25.703125 32.3125 26.28125 31.9375 C 26.066406 31.679688 26.023438 31.347656 26.21875 31.15625 C 26.425781 30.949219 26.832031 30.988281 27.09375 31.25 C 27.117188 31.273438 27.105469 31.316406 27.125 31.34375 C 27.609375 30.957031 28 30.578125 28 30.34375 L 28 29.8125 C 28 29.289063 26.5 29.011719 25 29 Z M 24.96875 35.0625 C 24.984375 35.054688 24.984375 35.070313 25 35.0625 C 25.699219 35.351563 27.300781 35.953125 28.8125 36 C 28.398438 37.160156 27.300781 38 26 38 L 24 38 C 22.699219 38 21.601563 37.160156 21.1875 36 C 22.664063 35.953125 24.246094 35.359375 24.96875 35.0625 Z "></path>
  </g>
</svg>