<?xml version="1.0" encoding="utf-8"?>
<!DOCTYPE svg PUBLIC "-//W3C//DTD SVG 1.1//EN" "http://www.w3.org/Graphics/SVG/1.1/DTD/svg11.dtd">
<svg xmlns="http://www.w3.org/2000/svg" xmlns:xlink="http://www.w3.org/1999/xlink" viewBox="0 0 50 50" version="1.1">
  <path style="fill:#111315" d="M 33.875 6.75 C 33.789063 6.75 33.695313 6.789063 33.59375 6.8125 C 33.292969 6.914063 33.007813 7.113281 32.90625 7.3125 C 31.105469 10.914063 34.601563 15.6875 36.5 17.6875 C 36.398438 20.488281 34.792969 22 32.09375 22 C 30.292969 22 28.59375 19.90625 26.59375 17.40625 C 23.292969 13.40625 18.886719 8 10.6875 8 C 6.1875 8 3.085938 10.085938 1.6875 13.6875 C 2.1875 16.085938 2.90625 17.585938 2.90625 17.6875 C 3.007813 17.886719 5.492188 24 16.09375 25 C 16.59375 25.101563 17.101563 25.492188 17 26.09375 C 17 26.59375 16.5 27 16 27 L 15.90625 27 C 4.007813 25.898438 1.195313 18.710938 1.09375 18.3125 C 1.09375 18.3125 1.101563 18.1875 1 18.1875 C 1.101563 26.988281 5.605469 36.6875 17.90625 38.6875 L 17 32.09375 L 17 31.8125 C 17.101563 31.414063 17.40625 31 17.90625 31 C 18.507813 31 18.898438 31.304688 19 31.90625 L 20.90625 46.5 L 21.09375 47.3125 C 21.195313 47.613281 21.394531 47.800781 21.59375 48 C 21.695313 48.101563 21.894531 48.09375 22.09375 48.09375 C 22.195313 48.09375 22.300781 48.101563 22.5 48 C 22.601563 48 22.789063 47.894531 23.1875 47.59375 C 24.789063 45.992188 28.292969 41.210938 26.09375 32.3125 C 25.992188 32.011719 26.113281 31.699219 26.3125 31.5 C 26.511719 31.300781 26.699219 31.09375 27 31.09375 C 29 30.894531 30.40625 30.1875 30.40625 30.1875 C 30.90625 29.886719 31.488281 30.09375 31.6875 30.59375 C 31.988281 31.09375 31.8125 31.707031 31.3125 31.90625 C 31.210938 31.90625 30.113281 32.511719 28.3125 32.8125 C 28.710938 34.613281 28.8125 36.1875 28.8125 37.6875 C 36.8125 34.789063 40.59375 27.199219 41.59375 20.5 C 45.09375 21.199219 47.699219 20.507813 49 18.40625 C 49 18.105469 49.007813 17.800781 48.90625 17.5 C 48.804688 17.199219 48.613281 17.007813 48.3125 16.90625 C 47.613281 16.707031 46.6875 16.011719 45.6875 15.3125 C 43.988281 14.113281 42.398438 13 41 13 C 40.199219 11 37.800781 9.394531 36 8.09375 C 35.398438 7.695313 34.800781 7.300781 34.5 7 C 34.351563 6.851563 34.136719 6.746094 33.875 6.75 Z M 16 21 C 16.601563 21 17 21.398438 17 22 C 17 22.601563 16.601563 23 16 23 C 15.398438 23 15 22.601563 15 22 C 15 21.398438 15.398438 21 16 21 Z M 7 36.1875 L 6 39.6875 C 6 39.988281 5.988281 40.292969 6.1875 40.59375 C 6.289063 40.792969 6.605469 41 6.90625 41 L 7.3125 41 C 8.113281 41 10.210938 40.8125 12.3125 39.3125 C 10.210938 38.511719 8.5 37.386719 7 36.1875 Z "></path>
</svg>