<?xml version="1.0" encoding="utf-8"?>
<!DOCTYPE svg PUBLIC "-//W3C//DTD SVG 1.1//EN" "http://www.w3.org/Graphics/SVG/1.1/DTD/svg11.dtd">
<svg xmlns="http://www.w3.org/2000/svg" xmlns:xlink="http://www.w3.org/1999/xlink" viewBox="0 0 50 50" version="1.1">
  <path style="fill:#111315" d="M 18.6875 -0.03125 C 14.144531 -0.03125 11.808594 6.925781 10.0625 13.71875 L 10.125 13.71875 C 9.9375 15.414063 10.292969 16.71875 11.21875 17.75 C 13.15625 19.910156 17.664063 20.96875 25 20.96875 C 32.347656 20.96875 36.855469 19.929688 38.78125 17.78125 C 39.710938 16.746094 40.058594 15.425781 39.875 13.71875 L 39.90625 13.71875 C 38.097656 6.839844 35.867188 -0.03125 31.3125 -0.03125 C 29.941406 -0.03125 28.910156 0.242188 27.9375 0.5 C 27.027344 0.742188 26.179688 0.96875 25 0.96875 C 23.820313 0.96875 22.972656 0.742188 22.0625 0.5 C 21.089844 0.242188 20.058594 -0.03125 18.6875 -0.03125 Z M 8.34375 16.78125 C 2.78125 18.179688 -0.03125 20.097656 -0.03125 22.5 C -0.03125 27.441406 12.5625 30.03125 25 30.03125 C 37.4375 30.03125 50.03125 27.441406 50.03125 22.5 C 50.035156 20.101563 47.214844 18.179688 41.65625 16.78125 C 41.382813 17.664063 40.933594 18.460938 40.3125 19.15625 C 37.945313 21.800781 33.074219 23.03125 25 23.03125 C 16.9375 23.03125 12.070313 21.78125 9.6875 19.125 C 9.066406 18.433594 8.617188 17.65625 8.34375 16.78125 Z M 7.4375 30.0625 C 7.71875 32.027344 9.023438 34.503906 10.9375 35.15625 C 11.21875 35.855469 11.53125 36.574219 11.84375 37.28125 C 11.980469 37.59375 12.105469 37.90625 12.25 38.21875 C 12.589844 38.960938 12.964844 39.683594 13.34375 40.40625 C 13.558594 40.816406 13.773438 41.226563 14 41.625 C 14.246094 42.0625 14.484375 42.488281 14.75 42.90625 C 14.835938 43.042969 14.914063 43.179688 15 43.3125 C 15.265625 43.714844 15.5625 44.089844 15.84375 44.46875 C 15.898438 44.539063 15.945313 44.617188 16 44.6875 C 16.121094 44.847656 16.25 45.003906 16.375 45.15625 C 16.640625 45.488281 16.90625 45.820313 17.1875 46.125 C 17.207031 46.144531 17.230469 46.167969 17.25 46.1875 C 17.269531 46.207031 17.292969 46.230469 17.3125 46.25 C 17.378906 46.320313 17.433594 46.398438 17.5 46.46875 C 17.675781 46.648438 17.851563 46.832031 18.03125 47 C 18.074219 47.039063 18.113281 47.085938 18.15625 47.125 C 18.34375 47.296875 18.558594 47.433594 18.75 47.59375 C 18.945313 47.753906 19.140625 47.914063 19.34375 48.0625 C 19.527344 48.195313 19.71875 48.316406 19.90625 48.4375 C 20.003906 48.5 20.089844 48.566406 20.1875 48.625 C 20.226563 48.648438 20.273438 48.664063 20.3125 48.6875 C 21.710938 49.5 23.277344 50.003906 25 50.03125 L 25.125 50.03125 C 31.933594 50.03125 36.007813 42.570313 39.0625 35.09375 C 41.007813 34.476563 42.269531 32.074219 42.5625 30.0625 C 41.835938 30.253906 41.089844 30.40625 40.34375 30.5625 C 39.949219 31.851563 39.089844 33.09375 38.1875 33.1875 L 37.59375 33.25 L 37.34375 33.8125 C 34.523438 40.824219 30.875 47.96875 25.125 47.96875 L 25.03125 47.96875 C 23.894531 47.953125 22.832031 47.65625 21.84375 47.15625 L 38 31 C 32.089844 31.960938 26.269531 32.03125 25 32.03125 C 23.558594 32.03125 16.296875 31.945313 9.65625 30.5625 C 8.910156 30.410156 8.160156 30.253906 7.4375 30.0625 Z "></path>
</svg>