<?xml version="1.0" encoding="utf-8"?>
<!DOCTYPE svg PUBLIC "-//W3C//DTD SVG 1.1//EN" "http://www.w3.org/Graphics/SVG/1.1/DTD/svg11.dtd">
<svg xmlns="http://www.w3.org/2000/svg" xmlns:xlink="http://www.w3.org/1999/xlink" viewBox="0 0 50 50" version="1.1">
  <path style="fill:#111315" d="M 47 0.09375 L 45.28125 1.84375 C 45.269531 1.855469 45.011719 2.144531 44.5625 2.53125 C 43.886719 4.480469 43.25 5.804688 43.21875 5.875 C 38.566406 16.851563 29.03125 24.460938 28.625 24.78125 C 28.441406 24.925781 28.21875 25 28 25 C 27.703125 25 27.414063 24.875 27.21875 24.625 C 26.875 24.191406 26.941406 23.5625 27.375 23.21875 C 27.472656 23.144531 36.941406 15.589844 41.40625 5.0625 C 41.414063 5.046875 41.515625 4.824219 41.65625 4.5 C 40.507813 5.097656 39.164063 5.5625 37.8125 5.5625 L 37.40625 5.5625 L 16 26.96875 L 27.375 38.34375 L 28.0625 37.65625 C 31.300781 34.449219 33.976563 31.417969 36.21875 28.59375 C 36.28125 29.113281 36.382813 29.613281 36.59375 30.0625 C 37.195313 31.328125 38.382813 32.03125 39.90625 32.03125 C 40.878906 32.03125 41.722656 31.660156 42.34375 30.96875 C 43.152344 30.074219 43.535156 28.664063 43.375 27.125 C 43.3125 26.523438 43.140625 25.882813 42.96875 25.1875 C 42.507813 23.339844 41.964844 21.0625 42.96875 18.4375 C 46.300781 12.054688 47.023438 7.253906 47 4.3125 Z M 40.4375 22.71875 C 40.554688 23.816406 40.816406 24.796875 41.03125 25.65625 C 41.191406 26.304688 41.328125 26.882813 41.375 27.34375 C 41.472656 28.292969 41.292969 29.164063 40.875 29.625 C 40.636719 29.890625 40.308594 30.03125 39.90625 30.03125 C 38.933594 30.03125 38.589844 29.570313 38.40625 29.1875 C 37.898438 28.121094 38.230469 26.402344 38.65625 25.40625 C 39.308594 24.492188 39.882813 23.585938 40.4375 22.71875 Z M 14.59375 28.40625 L 2.40625 40.59375 C 0.71875 42.28125 0.71875 44.21875 2.40625 45.90625 L 4.71875 48.21875 C 5.171875 48.667969 5.824219 48.90625 6.6875 48.90625 C 9.628906 48.90625 15.3125 46.097656 18.15625 43.25 C 19.988281 41.421875 21.789063 38.949219 22.90625 36.71875 Z M 34.09375 35 C 33.753906 35 33.371094 35.183594 33.1875 35.5 C 32.964844 35.890625 31 39.355469 31 41.28125 C 31 43.496094 32.222656 45 34.03125 45 C 35.902344 45 37.0625 43.605469 37.0625 41.34375 C 37.0625 39.804688 35.320313 36.257813 34.96875 35.5625 C 34.804688 35.234375 34.460938 35.011719 34.09375 35 Z "></path>
</svg>