<?xml version="1.0" encoding="utf-8"?>
<!DOCTYPE svg PUBLIC "-//W3C//DTD SVG 1.1//EN" "http://www.w3.org/Graphics/SVG/1.1/DTD/svg11.dtd">
<svg xmlns="http://www.w3.org/2000/svg" xmlns:xlink="http://www.w3.org/1999/xlink" viewBox="0 0 512 512" version="1.1">
  <path d="m411.496094 128.628906c-4.71875 27.03125-17.441406 52.292969-37.09375 71.941406l-45.433594 45.4375c36.878906 13.101563 79.605469 5.246094 109.074219-24.222656l52.773437-52.773437-10.347656-10.347657c-8.804688-8.804687-18.707031-15.683593-29.074219-20.25-12.765625-6.097656-26.332031-9.113281-39.898437-9.785156zm0 0"/><path d="m353.191406 179.359375c40.429688-40.429687 40.910156-107.0625 0-147.976563l-10.347656-10.347656-52.773438 52.773438c-37.261718 37.261718-40.089843 95.632812-9.292968 136.59375l-280.777344 280.902344 20.695312 20.695312 290.078126-290.203125-.007813-.011719zm0 0"/><path d="m413.488281 98.785156c17.289063.917969 34.570313 4.785156 50.835938 12.554688 8.796875 3.878906 17.375 9.703125 25.625 16.257812l22.050781-22.050781-10.347656-10.347656c-25.265625-25.265625-60.792969-34.644531-93.921875-28.304688 2.941406 9.945313 5.167969 20.445313 5.773437 31.621094.007813.089844-.023437.179687-.015625.269531zm0 0"/><path d="m491.765625 51.515625c-1.960937-7.300781-5.609375-14.238281-11.324219-19.953125-5.679687-5.679688-12.566406-9.308594-19.8125-11.285156 3.851563 7.078125 7.023438 14.421875 9.546875 22.078125 7.382813 2.472656 14.636719 5.398437 21.589844 9.160156zm0 0"/><path d="m183.453125 180.054688-42.167969-42.167969c-34.695312 34.96875-34.605468 91.636719.261719 126.5l42.167969 42.167969c34.699218-34.96875 34.605468-91.636719-.261719-126.5zm0 0"/><path d="m331.945312 328.546875c-34.863281-34.867187-91.53125-34.957031-126.5-.261719l42.167969 42.167969c34.863281 34.867187 91.53125 34.957031 126.5.261719zm0 0"/><path d="m434.675781 35.074219c-4.804687-8.945313-10.5625-17.414063-17.875-24.726563l-10.347656-10.347656-22.074219 22.074219c4.3125 5.429687 8.089844 11.117187 11.523438 16.957031 12.753906-3.058594 25.75-4.640625 38.773437-3.957031zm0 0"/>
</svg>