<?xml version="1.0" encoding="utf-8"?>
<!DOCTYPE svg PUBLIC "-//W3C//DTD SVG 1.1//EN" "http://www.w3.org/Graphics/SVG/1.1/DTD/svg11.dtd">
<svg xmlns="http://www.w3.org/2000/svg" xmlns:xlink="http://www.w3.org/1999/xlink" viewBox="0 0 50 50" version="1.1">
  <g id="surface1">
    <path style=" " d="M 25 2 C 12.253906 2 3 12.0625 3 25.929688 C 3 33.011719 6.632813 36.753906 13.503906 36.753906 C 14.332031 36.753906 15.066406 36.535156 15.773438 36.328125 C 15.851563 36.308594 15.925781 36.285156 16 36.265625 L 16 44 C 16 45.652344 17.347656 47 19 47 C 19.769531 47 20.46875 46.699219 21 46.222656 C 21.53125 46.699219 22.230469 47 23 47 C 23.769531 47 24.46875 46.699219 25 46.222656 C 25.53125 46.699219 26.230469 47 27 47 C 27.769531 47 28.46875 46.699219 29 46.222656 C 29.53125 46.699219 30.230469 47 31 47 C 32.652344 47 34 45.652344 34 44 L 34 36.265625 C 34.074219 36.285156 34.144531 36.308594 34.222656 36.328125 C 34.910156 36.53125 35.621094 36.742188 36.429688 36.742188 C 43.347656 36.742188 47 33.003906 47 25.929688 C 47 12.0625 37.746094 2 25 2 Z M 18.011719 29 C 10 29 9.96875 23.199219 10.027344 21.242188 C 10.105469 18.621094 11.164063 16 13.269531 16 C 17.996094 16 23 20.886719 23 24.203125 C 23 27.671875 21.554688 29 18.011719 29 Z M 26.953125 37 C 25.339844 37 25.007813 35.363281 25.007813 35.363281 C 25.007813 35.363281 24.308594 36.9375 23.214844 36.9375 C 20.769531 36.9375 22.605469 34.578125 23.628906 31.605469 C 23.960938 30.644531 25.007813 31.003906 25.007813 32.039063 C 25.007813 30.957031 26.003906 30.449219 26.503906 31.871094 C 27.5625 34.890625 29.019531 37 26.953125 37 Z M 31.988281 29 C 28.445313 29 27 27.671875 27 24.203125 C 27 20.886719 32.003906 16 36.730469 16 C 38.835938 16 39.894531 18.621094 39.972656 21.242188 C 40.03125 23.199219 40 29 31.988281 29 Z "></path>
  </g>
</svg>