<?xml version="1.0" encoding="utf-8"?>
<!DOCTYPE svg PUBLIC "-//W3C//DTD SVG 1.1//EN" "http://www.w3.org/Graphics/SVG/1.1/DTD/svg11.dtd">
<svg xmlns="http://www.w3.org/2000/svg" xmlns:xlink="http://www.w3.org/1999/xlink" viewBox="0 0 194.355 194.355" version="1.1">
  <path d="M190.178,186.855c0,4.142-3.358,7.5-7.5,7.5h-58.627h-49.5H11.678c-4.142,0-7.5-3.358-7.5-7.5s3.358-7.5,7.5-7.5h55.373
    v-21.667H51.753c-15.894,0-28.825-12.931-28.825-28.825V91.979c0-10.015,8.148-18.163,18.163-18.163l0.337,0.003
    c9.829,0.18,17.826,8.485,17.826,18.513v27.731c0,0.717,0.583,1.3,1.3,1.3h6.498V32.25C67.051,14.467,81.518,0,99.301,0
    s32.25,14.467,32.25,32.25v38.194h7.078c1.667,0,3.024-1.357,3.024-3.024V46.472c0-8.948,6.849-16.402,15.592-16.968
    c9.7-0.627,17.786,7.088,17.786,16.653v31.787c0,14.269-11.609,25.878-25.878,25.878h-17.603v75.534h51.127
    C186.82,179.355,190.178,182.713,190.178,186.855z"/>
</svg>